<svg width="134" height="36" viewBox="0 0 134 36" fill="none" xmlns="http://www.w3.org/2000/svg">
<mask id="mask0_1701_79" style="mask-type:alpha" maskUnits="userSpaceOnUse" x="0" y="0" width="134" height="34">
<path d="M133.024 0.442543H0.242676V33.3335H133.024V0.442543Z" fill="white"/>
</mask>
<g mask="url(#mask0_1701_79)">
<path d="M52.5505 12.298H56.7445V25.6508H52.5505V12.298Z" fill="white"/>
<path d="M57.6211 12.298H61.6606V14.1236H61.7377C62.7154 12.6892 63.9762 11.9069 65.803 11.9069C68.6846 11.9069 70.3827 13.9933 70.3827 16.9663V25.6508H66.1889V17.827C66.1889 16.4187 65.4943 15.4536 64.1306 15.4536C62.7412 15.4536 61.8149 16.6272 61.8149 18.2702V25.6508H57.6211V12.298Z" fill="white"/>
<path d="M57.1633 8.72608C57.1633 7.31769 56.037 6.17611 54.6476 6.17611C53.2583 6.17611 52.1318 7.31769 52.1318 8.72608C52.1318 10.1343 53.2583 11.2759 54.6476 11.2759C56.037 11.2759 57.1633 10.1343 57.1633 8.72608Z" fill="#E60023"/>
<path d="M99.8786 12.1053C99.7588 12.0944 99.6217 12.0895 99.4611 12.0895C97.8659 12.0895 96.7854 12.7936 95.8591 14.3845H95.782V12.2982H91.7681V25.6508H95.9619V19.6526C95.9619 16.8733 97.4805 15.5854 99.8786 15.8102V12.1053Z" fill="white"/>
<path d="M120.46 17.2273C118.787 16.9145 117.295 16.7841 117.295 15.8453C117.295 15.0106 118.093 14.6194 119.122 14.6194C120.28 14.6194 121.077 14.9845 121.232 16.1843H125.091C124.886 13.5502 122.878 11.9071 119.148 11.9071C116.034 11.9071 113.461 13.3676 113.461 16.1843C113.461 19.3137 115.906 19.9396 118.196 20.3309C119.945 20.6439 121.54 20.7743 121.54 21.9738C121.54 22.8346 120.743 23.3039 119.482 23.3039C118.217 23.3039 117.381 22.7615 117.124 21.661H113.128C113.422 24.4059 115.799 26.0684 119.508 26.0684C122.956 26.0684 125.503 24.5558 125.503 21.6349C125.503 18.2184 122.776 17.6186 120.46 17.2273Z" fill="white"/>
<path d="M106.384 14.9322C107.748 14.9322 108.725 15.9493 108.88 17.5404H103.682C103.965 15.9493 104.789 14.9322 106.384 14.9322ZM106.615 22.9907C104.892 22.9907 103.914 21.8694 103.656 20.0699H113.125C113.151 17.3576 112.379 15.0365 110.809 13.5762C109.677 12.533 108.185 11.907 106.307 11.907C102.293 11.907 99.5398 14.9582 99.5398 18.9486C99.5398 22.9907 102.216 26.0422 106.564 26.0422C108.236 26.0422 109.574 25.5989 110.681 24.8164C111.838 24.0079 112.61 22.8605 112.893 21.6609H108.802C108.442 22.4954 107.722 22.9907 106.615 22.9907Z" fill="white"/>
<path d="M132.889 22.5021C132.694 22.5099 132.433 22.5214 132.193 22.5214C131.293 22.5214 130.727 22.2604 130.727 21.2173V14.9582H132.889V12.298H130.727V8.07313H126.636V12.298H125.348V14.9582H126.636V22.1301C126.636 24.9989 128.385 25.8073 130.83 25.8073C131.762 25.8073 132.467 25.7365 132.889 25.6532V22.5021Z" fill="white"/>
<path d="M77.872 22.5082C77.7046 22.5148 77.5115 22.5214 77.3311 22.5214C76.4308 22.5214 75.8646 22.2604 75.8646 21.2173V14.9582H77.872V12.298H75.8646V8.07313H71.7737V12.298H70.4094V14.9582H71.7737V22.1301C71.7737 24.9989 73.5231 25.8073 75.9675 25.8073C76.7945 25.8073 77.4421 25.7515 77.872 25.6809V22.5082Z" fill="white"/>
<path d="M87.0071 17.5404C86.8527 15.9494 85.8749 14.9322 84.5112 14.9322C82.916 14.9322 82.0927 15.9494 81.8097 17.5404H87.0071ZM77.6672 18.9486C77.6672 14.9584 80.4202 11.9071 84.4341 11.9071C86.3122 11.9071 87.8047 12.533 88.9368 13.5762C90.5063 15.0366 91.278 17.3576 91.2523 20.07H81.7841C82.0411 21.8694 83.019 22.9909 84.7429 22.9909C85.8492 22.9909 86.5696 22.4954 86.9297 21.6609H91.0207C90.7377 22.8605 89.9659 24.0079 88.808 24.8166C87.7018 25.5989 86.3637 26.0422 84.6914 26.0422C80.3431 26.0422 77.6672 22.9909 77.6672 18.9486Z" fill="white"/>
<path d="M45.2674 15.7667C46.9141 15.7667 47.8403 14.7757 47.8403 13.289C47.8403 11.8026 46.8883 10.8898 45.2674 10.8898H42.051V15.7667H45.2674ZM37.8052 7.00391H45.0881C47.3264 7.00391 48.9731 7.62977 50.1052 8.72517C51.2887 9.84648 51.9578 11.4375 51.9578 13.3151C51.9578 16.888 49.5135 19.4178 45.7312 19.4178H42.051V25.6508H37.8052V7.00391Z" fill="white"/>
<path d="M32.0478 16.888C32.0478 25.752 24.9584 32.9378 16.2136 32.9378C7.46864 32.9378 0.379395 25.752 0.379395 16.888C0.379395 8.02399 7.46864 0.838371 16.2136 0.838371C24.9584 0.838371 32.0478 8.02399 32.0478 16.888Z" fill="white"/>
<path d="M16.2135 0.837883C7.46863 0.837883 0.379395 8.02363 0.379395 16.8877C0.379395 23.6871 4.553 29.4997 10.4432 31.8383C10.3048 30.5683 10.1797 28.6155 10.4981 27.2292C10.7858 25.9765 12.3548 19.2514 12.3548 19.2514C12.3548 19.2514 11.8812 18.2899 11.8812 16.8685C11.8812 14.6368 13.1574 12.9707 14.7464 12.9707C16.0972 12.9707 16.7497 13.9987 16.7497 15.2314C16.7497 16.6086 15.8848 18.6674 15.4384 20.5753C15.0654 22.1727 16.2288 23.4755 17.7832 23.4755C20.5974 23.4755 22.7608 20.4677 22.7608 16.1259C22.7608 12.2832 20.0366 9.59634 16.1467 9.59634C11.6413 9.59634 8.99685 13.0216 8.99685 16.5614C8.99685 17.9409 9.52109 19.42 10.1753 20.2241C10.3047 20.3831 10.3236 20.5223 10.2851 20.6845C10.1649 21.1915 9.89777 22.2815 9.84532 22.5047C9.77628 22.7985 9.61584 22.8609 9.31576 22.7193C7.33817 21.7862 6.10174 18.8555 6.10174 16.5016C6.10174 11.4388 9.73084 6.78916 16.564 6.78916C22.0568 6.78916 26.3254 10.7566 26.3254 16.0588C26.3254 21.5901 22.8847 26.0417 18.1089 26.0417C16.5044 26.0417 14.9961 25.1968 14.4797 24.1987C14.4797 24.1987 13.6857 27.2632 13.4932 28.014C13.1358 29.4081 12.1708 31.1555 11.5253 32.2216C13.0068 32.6865 14.5812 32.9373 16.2135 32.9373C24.9586 32.9373 32.0478 25.7515 32.0478 16.8877C32.0478 8.02363 24.9586 0.837883 16.2135 0.837883Z" fill="#E60023"/>
</g>
</svg>
