<svg xmlns="http://www.w3.org/2000/svg" width="112" height="47" viewBox="0 0 112 47" fill="none"><path d="M8.09364 17.6285C9.03476 17.2369 9.73122 16.6563 10.1952 15.8987C10.6845 15.0987 10.933 14.1642 10.933 13.1205C10.9325 12.5246 10.8286 11.9333 10.6262 11.3728C10.421 10.8081 10.087 10.2764 9.63233 9.81999C9.18346 9.36827 8.59149 8.9965 7.87248 8.71133C7.15346 8.42618 6.27069 8.28125 5.23921 8.28125H0.188224C0.0846372 8.28125 0.000517938 8.36494 0 8.46853V24.2963C0 24.3999 0.0836974 24.484 0.187283 24.4845H2.39421C2.49779 24.484 2.5815 24.3999 2.58149 24.2963V18.0049H5.4585L8.79948 24.3828C8.83148 24.445 8.89547 24.4835 8.96512 24.4835H11.5278C11.5939 24.4832 11.655 24.4483 11.6887 24.3914C11.7225 24.3345 11.7239 24.2641 11.6925 24.2059L8.09176 17.6181L8.09364 17.6285ZM8.23199 13.1901C8.23199 13.9713 8.00611 14.5717 7.54308 15.0272C7.08005 15.4827 6.37139 15.7105 5.43214 15.7105H2.58055V10.6284H5.38321C6.2801 10.6284 6.98876 10.8543 7.4885 11.3032C7.98823 11.7521 8.2414 12.3714 8.2414 13.192L8.23199 13.1901ZM21.8689 14.5077C21.3247 13.949 20.6754 13.5034 19.9584 13.1967C19.2271 12.8805 18.4205 12.7186 17.5585 12.7186C16.6814 12.7186 15.8663 12.8787 15.1351 13.1967C14.4039 13.5148 13.7648 13.9553 13.2359 14.5096C12.7058 15.0672 12.2831 15.7177 11.9889 16.4285C11.6878 17.1475 11.5372 17.9343 11.5372 18.7682C11.5372 19.602 11.6897 20.3869 11.9889 21.1049C12.2901 21.8296 12.7117 22.4771 13.2359 23.0249C13.7657 23.5895 14.4058 24.0224 15.1351 24.3368C15.8644 24.6511 16.6852 24.8073 17.5585 24.8073C18.3829 24.8144 19.2 24.651 19.9584 24.3274C20.6886 24.0121 21.3323 23.5716 21.8689 23.0164C22.4075 22.4625 22.835 21.8104 23.1281 21.0955C23.4292 20.3747 23.5826 19.5879 23.5826 18.7587C23.5826 17.9296 23.4301 17.1428 23.1281 16.4201C22.834 15.7057 22.4066 15.0538 21.8689 14.4992V14.5077ZM17.5566 22.5882C17.0173 22.5882 16.5214 22.48 16.111 22.2653C15.6892 22.0521 15.314 21.7572 15.0072 21.3976C14.6984 21.0353 14.4612 20.6241 14.306 20.1742C14.1467 19.7219 14.0655 19.2458 14.066 18.7663C14.0664 18.2816 14.1475 17.8003 14.306 17.3423C14.4573 16.8958 14.6913 16.4816 14.9958 16.1217C15.297 15.7688 15.6678 15.4817 16.1007 15.2747C16.5336 15.0676 17.0229 14.951 17.5576 14.951C18.0921 14.951 18.5805 15.0601 19.0031 15.2747C19.4256 15.4877 19.8013 15.783 20.108 16.1434C20.4171 16.5067 20.6553 16.925 20.81 17.3763C20.966 17.8261 21.0461 18.2987 21.0472 18.7748C21.0471 19.258 20.967 19.7378 20.81 20.1949C20.658 20.6421 20.4233 21.0568 20.1184 21.4174C19.8145 21.776 19.4395 22.0676 19.0172 22.2738C18.5749 22.4922 18.0978 22.5966 17.5566 22.5966V22.5882ZM32.7237 18.7729C32.3484 18.4878 31.9313 18.2623 31.4871 18.1047C31.0018 17.9284 30.5069 17.7799 30.0048 17.6595C29.1333 17.4581 28.4209 17.2416 27.8873 17.0168C27.4139 16.8285 27.1833 16.5302 27.1833 16.1349C27.1833 15.6992 27.3527 15.3952 27.701 15.2079C28.0774 15.0009 28.6063 14.8974 29.25 14.8974C29.8863 14.8974 30.449 14.9971 30.9214 15.1928C31.392 15.3811 31.8014 15.6333 32.1139 15.9175C32.1515 15.9524 32.2033 15.9702 32.2551 15.9646C32.3068 15.9603 32.3545 15.9347 32.3868 15.894L33.5481 14.423C33.6102 14.3449 33.5999 14.232 33.5246 14.1661C33.007 13.7096 32.3905 13.3501 31.6969 13.0979C31.0033 12.8457 30.177 12.7196 29.2255 12.7196C28.6673 12.7188 28.1115 12.7929 27.5729 12.9398C27.0602 13.0786 26.5733 13.2995 26.1312 13.5939C25.7011 13.8828 25.35 14.2451 25.0893 14.6715C24.8286 15.0978 24.6941 15.6107 24.6941 16.1819C24.6941 16.7353 24.807 17.2172 25.0262 17.6124C25.24 18.0014 25.5304 18.343 25.8799 18.6166C26.2358 18.8955 26.633 19.1171 27.0572 19.2735C27.4779 19.4331 27.9094 19.5628 28.3484 19.6613L29.8467 20.049C30.2298 20.1619 30.5431 20.2881 30.7878 20.4236C31.0024 20.5488 31.1642 20.6889 31.2396 20.8377C31.3259 21.0123 31.3704 21.2047 31.3694 21.3995C31.3694 21.8155 31.1812 22.1148 30.7624 22.3106C30.3173 22.527 29.746 22.6342 29.0637 22.6342C28.3653 22.6342 27.7442 22.5194 27.2172 22.2936C26.7086 22.0802 26.2454 21.7717 25.8526 21.3844C25.8171 21.3476 25.7673 21.3277 25.7161 21.3299C25.665 21.3309 25.6163 21.3526 25.5816 21.3901L24.2828 22.815C24.2167 22.8873 24.2171 22.9982 24.2837 23.07C25.3594 24.2276 26.9848 24.8148 29.1183 24.8148C29.7211 24.8152 30.3217 24.7413 30.9064 24.5947C31.4833 24.4497 31.9916 24.2239 32.4348 23.9283C32.8717 23.6408 33.2396 23.2603 33.5124 22.8141C33.7825 22.366 33.9189 21.8418 33.9189 21.2574C33.9189 20.6946 33.8126 20.2034 33.6018 19.794C33.3937 19.395 33.1008 19.0464 32.7435 18.7729H32.7237ZM44.7201 14.8136C44.2626 14.1871 43.6689 13.6726 42.9838 13.3088C42.2798 12.9322 41.4272 12.7422 40.4494 12.7422C39.6212 12.7422 38.8495 12.8993 38.1559 13.2099C37.4623 13.5205 36.8571 13.944 36.3517 14.4738C35.8463 15.0037 35.4501 15.6389 35.1735 16.3626C34.8929 17.1083 34.7516 17.8991 34.7565 18.6957C34.7565 19.5963 34.9005 20.4339 35.1847 21.1831C35.4689 21.9322 35.8793 22.5816 36.4082 23.1218C36.9371 23.662 37.5686 24.0817 38.3017 24.3753C39.0349 24.669 39.8471 24.8176 40.7204 24.8176C41.4263 24.8176 42.07 24.7386 42.6308 24.5843C43.1721 24.4384 43.6642 24.2549 44.0915 24.0384C44.5056 23.8276 44.8501 23.6026 45.1126 23.3721L45.6998 22.8112C45.7655 22.7384 45.7642 22.6275 45.697 22.5562L44.4859 21.2762C44.45 21.2386 44.3917 21.2197 44.3465 21.2179C44.3013 21.216 44.2524 21.2415 44.21 21.2809C43.9588 21.5633 43.5381 21.8607 42.9584 22.1656C42.3872 22.4649 41.6408 22.6173 40.742 22.6173C40.3034 22.6195 39.8686 22.5357 39.4621 22.3707C39.0637 22.2104 38.6966 21.981 38.3779 21.6932C38.0631 21.4093 37.8073 21.0661 37.6251 20.6833C37.4651 20.354 37.3682 19.9897 37.3352 19.601H45.8326C45.9267 19.601 46.0208 19.5069 46.0208 19.4128C46.0223 18.5798 45.9163 17.7501 45.7055 16.9443C45.4966 16.1509 45.1596 15.4319 44.7173 14.8174L44.7201 14.8136ZM40.4494 14.9209C41.3904 14.9209 42.0812 15.1957 42.5895 15.7678C43.0525 16.2873 43.3424 16.916 43.4233 17.6388H37.3295C37.3615 17.3322 37.4392 17.0321 37.5601 16.7485C37.7071 16.4024 37.9199 16.0882 38.1869 15.8234C38.4664 15.5476 38.796 15.3278 39.1581 15.1759C39.5669 15.0066 40.006 14.9228 40.4485 14.9293L40.4494 14.9209ZM61.7601 22.8507C61.617 22.5279 61.5173 22.0103 61.5154 22.0056C61.5021 21.9387 61.4538 21.8842 61.3889 21.8631C61.3242 21.8421 61.253 21.8577 61.203 21.904C60.9793 22.1211 60.7234 22.3025 60.4444 22.4413C60.2025 22.5543 59.8864 22.6136 59.5033 22.6136C59.0515 22.6136 58.7127 22.4724 58.4708 22.1834C58.2262 21.888 58.101 21.3129 58.101 20.4754V15.238H61.1409C61.2441 15.2375 61.3276 15.1539 61.3281 15.0507V13.2626C61.3276 13.1594 61.2441 13.0758 61.1409 13.0753H58.101V9.65435C58.1009 9.59032 58.0683 9.53081 58.0144 9.49622C57.9599 9.46237 57.8921 9.45673 57.8262 9.484L55.6899 10.4722C55.6235 10.5029 55.5809 10.5694 55.5807 10.6425V13.0763H50.956V9.65528C50.9559 9.59126 50.9233 9.53175 50.8694 9.49716C50.8148 9.46237 50.7471 9.45955 50.6812 9.48494L48.5449 10.4731C48.4784 10.5038 48.4359 10.5703 48.4357 10.6434V13.0772H46.6306C46.5274 13.0777 46.4438 13.1613 46.4434 13.2645V15.0526C46.4438 15.1558 46.5274 15.2394 46.6306 15.2399H48.4357V20.7002C48.4357 22.0856 48.7181 23.1246 49.2987 23.7872C49.8794 24.461 50.7932 24.8035 52.0167 24.8035C52.6999 24.8035 53.3032 24.7094 53.8085 24.493C54.2166 24.3268 54.5925 24.0905 54.9191 23.7947C54.9844 23.736 55.0004 23.6399 54.9577 23.5632C54.9558 23.5603 54.7581 23.2055 54.6057 22.862C54.4986 22.5884 54.4167 22.3055 54.361 22.0169C54.3477 21.9498 54.2991 21.8952 54.2339 21.8743C54.1689 21.8534 54.0975 21.8694 54.0476 21.9162C53.7935 22.1552 53.5394 22.3359 53.2882 22.4526C53.05 22.5656 52.7347 22.6239 52.3498 22.6239C51.8953 22.6239 51.5593 22.4828 51.3193 22.1938C51.0717 21.8964 50.9466 21.3215 50.9466 20.4857V15.238H55.5713V20.6983C55.5713 22.0846 55.8536 23.1227 56.4371 23.7853C57.0168 24.4591 57.9306 24.8017 59.1532 24.8017C59.8383 24.8017 60.4407 24.7076 60.9451 24.4911C61.3533 24.3253 61.7289 24.0885 62.0546 23.7919C62.1191 23.733 62.1347 23.6375 62.0923 23.5613C61.9666 23.3322 61.8497 23.0984 61.7422 22.8601L61.7601 22.8507ZM72.5557 24.2436L72.5368 23.3213V16.9028C72.5368 15.5852 72.1039 14.552 71.2476 13.8301C70.4043 13.1148 69.2336 12.7525 67.7691 12.7525C67.2254 12.7471 66.6823 12.7919 66.1467 12.8862C65.6779 12.9746 65.2525 13.0894 64.8827 13.2278C64.5129 13.3661 64.1797 13.5167 63.9002 13.6795C63.6515 13.8254 63.414 13.9897 63.1896 14.1708C63.1145 14.2327 63.099 14.3417 63.1539 14.422L64.1515 15.8695C64.1797 15.9109 64.224 15.9391 64.2738 15.9476C64.3232 15.9562 64.3741 15.9447 64.415 15.9156C64.735 15.687 65.1396 15.4564 65.6197 15.2323C66.0836 15.0159 66.7273 14.9049 67.5319 14.9049C68.3442 14.9049 68.9907 15.0743 69.4518 15.4036C69.9007 15.7236 70.1107 16.2525 70.1107 17.0196V17.2078L69.9111 17.189L69.2523 17.1419L68.443 17.093L67.6242 17.0685C66.0243 17.0685 64.7726 17.443 63.9096 18.1828C63.039 18.929 62.5977 19.9333 62.5977 21.1718C62.5977 21.8324 62.7201 22.4009 62.9629 22.8601C63.2056 23.3194 63.5238 23.7072 63.919 23.9914C64.3077 24.2737 64.7444 24.4921 65.2178 24.6163C65.6784 24.7381 66.153 24.7998 66.6294 24.7998C67.3647 24.7989 68.0929 24.6577 68.7752 24.3838C69.2972 24.1794 69.7698 23.8663 70.1614 23.4653L70.1916 24.3123C70.1957 24.4129 70.2782 24.4926 70.3789 24.493H72.3702C72.4832 24.493 72.5661 24.3989 72.5661 24.3047C72.5659 24.2833 72.5621 24.2619 72.5548 24.2417L72.5557 24.2436ZM65.1726 20.4085C65.2431 20.1771 65.3749 19.9634 65.566 19.7752C65.7608 19.5813 66.0327 19.4157 66.3772 19.2838C66.7217 19.1521 67.1932 19.0825 67.7701 19.0825L68.5418 19.105L69.2985 19.1521L69.9168 19.2115L70.121 19.2397V20.3407C70.121 20.6419 70.041 20.9384 69.8857 21.2235C69.721 21.5209 69.5046 21.7816 69.242 22.0009C68.9794 22.2202 68.6632 22.4056 68.3009 22.5373C67.9474 22.6728 67.5717 22.7414 67.1932 22.7397C66.5128 22.7397 65.9763 22.5966 65.598 22.3143C65.2328 22.032 65.0559 21.6423 65.0559 21.0984C65.0589 20.8633 65.0963 20.6299 65.167 20.4057L65.1726 20.4085ZM26.486 35.0081C26.0342 34.6129 25.5185 34.2948 24.952 34.0623C24.359 33.8233 23.7473 33.6256 23.1328 33.4741L21.3635 32.9875C20.8251 32.8162 20.3658 32.6111 19.9941 32.3514C19.6177 32.0907 19.307 31.7838 19.1 31.4385C18.8855 31.0789 18.7772 30.648 18.7772 30.1548C18.7797 29.8064 18.8511 29.4619 18.9871 29.1411C19.1226 28.8024 19.3447 28.4946 19.644 28.2236C19.9263 27.9601 20.3028 27.7455 20.7414 27.5837C21.1799 27.4218 21.6995 27.3418 22.2848 27.3418C22.8702 27.3418 23.3953 27.4124 23.8489 27.5516C24.2642 27.6746 24.663 27.8475 25.0367 28.0664C25.3698 28.2612 25.6578 28.4711 25.8855 28.6894L26.0079 28.8099C26.069 28.8739 26.1697 28.8786 26.2356 28.8175L27.1391 27.9892C27.205 27.93 27.2097 27.8293 27.1514 27.7615L26.9979 27.5921L26.8991 27.4848C26.661 27.2336 26.34 26.986 25.9458 26.7479C25.5448 26.508 25.047 26.299 24.4663 26.1268C23.9017 25.9574 23.194 25.8698 22.3959 25.8698C21.4905 25.8698 20.6896 25.9922 20.0148 26.235C19.34 26.4778 18.7725 26.7997 18.3208 27.1949C17.8918 27.5711 17.5522 28.0383 17.327 28.5624C17.1058 29.0888 16.9928 29.6544 16.9947 30.2254C16.9947 30.8578 17.1077 31.4299 17.326 31.9241C17.5466 32.4211 17.8651 32.8686 18.2625 33.2398C18.6937 33.6402 19.1881 33.9664 19.7259 34.2054C20.3462 34.4858 20.9966 34.6936 21.6646 34.8246C23.0828 35.1315 24.1435 35.5248 24.9067 36.0265C25.7349 36.5685 26.1547 37.3863 26.1547 38.4564C26.1547 39.4446 25.7782 40.2417 25.0658 40.8261C24.3694 41.3927 23.4 41.6797 22.1822 41.6797C21.5959 41.6797 21.0491 41.6044 20.556 41.4604C20.0853 41.3236 19.6333 41.1292 19.2101 40.8817C18.8188 40.6539 18.4546 40.3828 18.1241 40.0733L17.647 39.5979C17.5858 39.535 17.487 39.5321 17.4211 39.5904L16.4198 40.5006C16.3876 40.5295 16.3686 40.5702 16.367 40.6135C16.3651 40.6567 16.3802 40.7076 16.4093 40.7301C16.5976 40.9371 16.8103 41.1443 17.04 41.3419C17.4136 41.6713 17.8681 41.9818 18.3923 42.2623C18.9099 42.5428 19.4935 42.7761 20.124 42.9568C20.7451 43.1337 21.4547 43.2241 22.2321 43.2241C23.0452 43.2241 23.8132 43.1055 24.5143 42.8702C25.2088 42.635 25.8168 42.3009 26.3194 41.8774C26.8136 41.4658 27.2176 40.9567 27.5062 40.3819C27.7885 39.8173 27.9315 39.1867 27.9315 38.5054C27.9315 37.6838 27.7998 36.9855 27.5438 36.4283C27.2803 35.8655 26.9226 35.393 26.4822 34.9978L26.486 35.0081ZM36.1126 41.771L36.0591 41.6769L35.8755 41.3663C35.8529 41.3259 35.8153 41.2977 35.7701 41.2882C35.7249 41.2788 35.6778 41.2863 35.6412 41.3127C35.4907 41.4197 35.331 41.5132 35.1641 41.5922C34.7462 41.7917 34.3518 41.8745 33.9246 41.8745C33.263 41.8745 32.7388 41.6487 32.3717 41.2035C32.0104 40.7725 31.8353 40.0459 31.8353 38.9843V32.7165H35.181C35.2704 32.7165 35.3438 32.644 35.3438 32.5537V31.6671C35.3438 31.5777 35.2713 31.5043 35.181 31.5043H31.8353V28.041C31.8353 27.9845 31.807 27.9338 31.76 27.9036C31.7129 27.8735 31.6546 27.8697 31.6047 27.8942L30.3305 28.4824C30.274 28.5106 30.2364 28.5765 30.2364 28.6302V31.5052H28.2317C28.1423 31.5052 28.0689 31.5787 28.0689 31.6681V32.5546C28.0689 32.644 28.1414 32.7174 28.2317 32.7174H30.2364V39.2112C30.2364 40.5776 30.5065 41.5828 31.0391 42.1992C31.5567 42.8016 32.4065 43.1055 33.566 43.1055C34.237 43.1055 34.8196 43.0067 35.2977 42.8119C35.6393 42.665 35.9643 42.482 36.267 42.2661C36.3028 42.2416 36.3263 42.2039 36.3329 42.172C36.3395 42.1399 36.331 42.0854 36.3047 42.0496L36.1126 41.7541V41.771ZM46.6532 32.8981C46.1205 32.3523 45.4815 31.9137 44.755 31.5994C44.0284 31.2851 43.2275 31.1269 42.3701 31.1269C41.495 31.1269 40.6761 31.287 39.9609 31.6003C39.2532 31.9024 38.6136 32.3441 38.0806 32.8991C37.5536 33.4638 37.1338 34.0981 36.8383 34.8133C36.5427 35.5286 36.3904 36.3191 36.3904 37.1379C36.3904 37.9567 36.5409 38.7491 36.8383 39.4625C37.1309 40.1724 37.5527 40.8218 38.0825 41.3776C38.6076 41.9273 39.24 42.364 39.9647 42.6764C40.6893 42.9888 41.4931 43.147 42.374 43.147C43.2369 43.147 44.0398 42.9888 44.7588 42.6764C45.4778 42.364 46.1187 41.9282 46.6579 41.3757C47.1878 40.828 47.5991 40.1843 47.9096 39.4615C48.208 38.7444 48.3595 37.9623 48.3595 37.1369C48.3595 36.3116 48.2089 35.5314 47.9105 34.8124C47.6122 34.0934 47.1925 33.4505 46.6589 32.8991L46.6532 32.8981ZM42.3692 41.8576C41.6964 41.8576 41.0799 41.7183 40.5407 41.4463C40.0089 41.1753 39.5477 40.8101 39.1694 40.3641C38.7911 39.918 38.4946 39.4116 38.3017 38.8583C38.1084 38.3056 38.0098 37.7243 38.01 37.1388C38.011 36.5496 38.109 35.9646 38.2998 35.4072C38.4874 34.8551 38.7773 34.3433 39.1544 33.8985C39.5363 33.4527 40.0047 33.089 40.5313 32.8294C41.0818 32.5471 41.7001 32.4173 42.3692 32.4173C43.0384 32.4173 43.6557 32.5565 44.195 32.8285C44.7267 33.0995 45.1898 33.4638 45.5709 33.9108C45.9521 34.3578 46.2448 34.8679 46.4368 35.4335C46.6271 35.9813 46.725 36.557 46.7266 37.1369C46.7266 37.7242 46.6288 38.3059 46.4368 38.8667C46.2536 39.4212 45.9639 39.9346 45.5841 40.3782C45.202 40.8237 44.7332 41.1867 44.2063 41.4454C43.6633 41.7277 43.044 41.8576 42.3673 41.8576H42.3692ZM55.8244 31.2286C55.3163 31.2286 54.8551 31.2917 54.4504 31.4168C54.0307 31.5514 53.6721 31.7124 53.387 31.8949C52.6774 32.3467 52.1447 32.8944 51.5988 33.7273L51.4718 33.9155L51.3758 31.6587C51.372 31.5721 51.3005 31.5034 51.2139 31.5034H50.0375C49.9942 31.5034 49.9434 31.5223 49.9217 31.5524C49.9001 31.5824 49.8747 31.6258 49.8747 31.669L49.8841 32.3655V42.6105C49.8841 42.7 49.9566 42.7733 50.0469 42.7733H51.3193C51.4087 42.7733 51.4821 42.7009 51.4821 42.6105V37.5633C51.4821 36.9572 51.5452 36.3548 51.6703 35.7723C51.8021 35.1681 52.012 34.627 52.2962 34.1649C52.5861 33.683 52.987 33.2821 53.4886 32.9725C53.9902 32.6628 54.6161 32.5067 55.352 32.5067C56.327 32.5067 57.1025 32.8106 57.6577 33.4101C58.1998 34.003 58.4766 34.9159 58.4766 36.1206V42.6124C58.4766 42.7018 58.549 42.7752 58.6393 42.7752H59.9099C59.9993 42.7752 60.0727 42.7028 60.0727 42.6124V35.9305C60.0727 34.4585 59.7198 33.2953 59.0233 32.4464C58.3335 31.6145 57.2841 31.2098 55.8188 31.2098L55.8244 31.2286ZM72.6027 35.2735C72.3929 34.483 72.0607 33.7677 71.6146 33.1485C71.1675 32.5361 70.5865 32.034 69.9159 31.6803C69.2354 31.317 68.3978 31.1326 67.4275 31.1326C66.6012 31.1326 65.8408 31.287 65.1642 31.5909C64.4954 31.8863 63.8908 32.3096 63.3844 32.8369C62.8755 33.375 62.4799 34.0101 62.2212 34.7042C61.9414 35.4503 61.8003 36.2413 61.8052 37.0381C61.8052 37.9463 61.9493 38.7886 62.2335 39.5415C62.4974 40.2553 62.9049 40.9073 63.4306 41.4576C63.9426 41.9865 64.5731 42.4006 65.2959 42.6811C66.0186 42.9615 66.8337 43.1177 67.7146 43.1177C68.4345 43.1177 69.0839 43.0396 69.6438 42.8863C70.2038 42.7329 70.7007 42.5475 71.1214 42.3328C71.5299 42.1258 71.8743 41.9094 72.119 41.6863L72.3543 41.4755C72.3863 41.4454 72.4061 41.4049 72.4079 41.3625C72.4098 41.3202 72.3938 41.276 72.3637 41.244L71.7548 40.6003C71.6965 40.5382 71.6005 40.5316 71.5346 40.5853C71.2391 40.8252 70.871 41.0577 70.4099 41.2977C69.7097 41.6694 68.81 41.8567 67.74 41.8567C67.1889 41.8582 66.6428 41.753 66.1316 41.547C65.63 41.34 65.1773 41.0577 64.7877 40.7048C64.3925 40.3468 64.071 39.9152 63.8409 39.4342C63.6012 38.9501 63.4702 38.4195 63.4569 37.8795L63.4438 37.5068H72.7486C72.7928 37.5068 72.8362 37.488 72.8662 37.456C72.8963 37.424 72.9133 37.3807 72.9105 37.3356C72.8781 36.637 72.7747 35.9435 72.6018 35.266L72.6027 35.2735ZM67.4284 32.3692C68.5974 32.3692 69.5224 32.7391 70.1766 33.4685C70.8137 34.1856 71.1741 35.0571 71.2494 36.0584L71.2776 36.4461H63.4315L63.4485 36.0697C63.4676 35.5949 63.5736 35.1276 63.761 34.691C63.948 34.2488 64.2194 33.8474 64.56 33.5089C64.9007 33.1663 65.3166 32.8878 65.7947 32.6808C66.2728 32.4737 66.8223 32.3683 67.419 32.3683L67.4284 32.3692Z" fill="#231F1F"></path><path d="M110.474 40.8516C110.676 40.8516 110.874 40.9034 111.066 41.0069C111.257 41.1104 111.407 41.2591 111.515 41.4511C111.622 41.643 111.675 41.8464 111.675 42.0534C111.675 42.263 111.62 42.4687 111.517 42.651C111.414 42.8388 111.26 42.9932 111.072 43.0962C110.881 43.2016 110.683 43.2562 110.473 43.2562C110.265 43.2562 110.066 43.2034 109.875 43.0962C109.687 42.9934 109.533 42.8389 109.43 42.651C109.324 42.46 109.27 42.2614 109.27 42.0534C109.27 41.8421 109.325 41.6344 109.431 41.4511C109.535 41.2626 109.691 41.1082 109.881 41.0069C110.073 40.9128 110.27 40.8516 110.471 40.8516H110.474ZM110.474 41.0512C110.305 41.0512 110.142 41.0944 109.982 41.181C109.823 41.2658 109.693 41.3946 109.606 41.5518C109.518 41.7047 109.471 41.8779 109.47 42.0543C109.471 42.229 109.516 42.4006 109.603 42.5522C109.692 42.7121 109.816 42.8346 109.975 42.923C110.284 43.0993 110.663 43.0993 110.973 42.923C111.13 42.8372 111.258 42.7086 111.344 42.5522C111.432 42.3922 111.476 42.2275 111.476 42.0534C111.476 41.877 111.429 41.7039 111.341 41.5508C111.256 41.3934 111.125 41.2646 110.967 41.18C110.817 41.0961 110.647 41.0514 110.474 41.0502V41.0512ZM109.948 42.7188V41.4257H110.392C110.503 41.4208 110.614 41.4328 110.722 41.4614C110.787 41.4842 110.845 41.5282 110.884 41.5866C110.923 41.642 110.944 41.708 110.944 41.7758C110.944 41.8699 110.911 41.9527 110.844 42.0224C110.777 42.092 110.687 42.1315 110.575 42.14C110.615 42.156 110.652 42.1793 110.685 42.2087C110.737 42.2595 110.801 42.3451 110.876 42.4647L111.033 42.7188H110.779L110.664 42.5145C110.574 42.3545 110.501 42.2538 110.445 42.2134C110.408 42.1852 110.351 42.1682 110.279 42.1682H110.157V42.7179H109.95L109.948 42.7188ZM110.155 41.9913H110.408C110.531 41.9913 110.613 41.9725 110.657 41.9367C110.701 41.9009 110.722 41.852 110.722 41.7937C110.722 41.756 110.713 41.7212 110.691 41.6995C110.668 41.6779 110.64 41.6468 110.602 41.6318C110.565 41.6167 110.494 41.6092 110.393 41.6092H110.156V41.9997L110.155 41.9913Z" fill="black"></path><path d="M80.2975 43.4609C80.5158 45.3498 82.6276 46.0209 84.205 46.3408L84.8732 46.4688C86.012 46.6815 86.7808 46.643 87.1393 46.6006L87.5779 46.5403L91.4365 45.9869L97.7115 45.155L99.6162 44.8934C100.022 44.8335 100.421 44.7296 100.805 44.5837C102.115 44.0812 103.408 43.2191 104.247 42.0747L107.305 37.8585L107.807 37.1555L108.593 36.0714C108.781 35.773 108.967 35.405 108.969 35.4012L109.391 34.3698C109.639 33.6169 109.827 32.8358 109.876 32.0405C109.951 30.8039 109.706 29.5277 109.588 28.3061L108.376 15.9021L108.305 15.3676C108.264 15.0984 108.092 14.083 107.551 12.3089L106.447 9.03764L105.6 6.81942L104.708 4.59367C104.195 3.45962 103.363 2.61731 103.014 2.2691C102.091 1.36938 101.023 0.264512 99.6951 0.0339378C99.29 -0.036646 98.8838 0.00570431 98.4956 0.134637L98.0001 0.319097L95.7617 1.13599L94.4803 1.61126C93.012 2.15993 91.5627 3.29586 90.6912 4.6012L81.8202 17.5228C81.7129 17.6828 81.5792 17.8851 81.3807 18.2822C81.3094 18.4252 81.2422 18.5702 81.1793 18.717L80.993 19.1764C80.7397 19.8196 80.5603 20.4896 80.4583 21.1734C80.4332 21.3511 80.415 21.5298 80.4038 21.7089L80.3972 21.9066C80.3925 21.9874 80.3972 22.0684 80.3963 22.1484L80.3351 40.8541C80.3304 41.701 80.1892 42.6121 80.2946 43.4629" fill="url(#paint0_linear_303_549)"></path><path d="M81.284 44.8154C81.387 44.8538 81.4946 44.8787 81.6039 44.8898C81.7187 44.901 81.8345 44.8975 81.9484 44.8794L85.6451 44.2978L88.0224 43.9439L92.7901 43.2531L94.804 42.952C95.1368 42.9011 95.5062 42.7826 95.8879 42.6179C96.2706 42.4532 96.6692 42.2321 97.0527 41.9827C97.7823 41.5045 98.4826 40.9192 98.9931 40.2077L100.467 38.1598L101.094 37.292L101.948 36.1082L102.579 35.2113L102.729 34.9976L103.535 33.8965C103.765 33.5765 103.983 33.1851 104.175 32.7531C104.367 32.3211 104.538 31.8524 104.673 31.3743C104.808 30.91 104.908 30.4366 104.974 29.9579C105.035 29.5015 105.055 29.0705 105.023 28.6969L103.693 12.375C103.629 11.5816 103.411 10.5493 103.11 9.434L102.068 6.04595L100.386 1.41846C100.29 1.15495 100.191 0.891434 100.057 0.646742C99.9972 0.539455 99.9351 0.442519 99.8646 0.362524C99.7941 0.282529 99.7198 0.217592 99.6371 0.1743C99.5506 0.125519 99.4575 0.0893877 99.3607 0.067012C99.2611 0.0434847 99.1539 0.03125 99.0411 0.03125C98.9226 0.03125 98.8051 0.0436661 98.6895 0.067012C98.5663 0.0905402 98.4413 0.125362 98.3125 0.173359L96.8318 0.721095L95.652 1.1446L94.1929 1.6848C93.558 1.92478 92.9765 2.31911 92.4448 2.73414C92.1422 2.97042 91.8529 3.22302 91.578 3.49081C91.3069 3.75432 91.0622 4.02724 90.8561 4.29076L90.762 4.40369L90.6801 4.52039L81.7639 17.4834C81.5776 17.7525 81.3988 18.0782 81.235 18.432C80.9096 19.1318 80.6656 19.8666 80.5076 20.622C80.4323 20.9919 80.3757 21.3684 80.3757 21.7457V21.9189V22.093L80.3748 22.2681L80.3739 22.4412L80.2439 43.0141C80.2431 43.1609 80.2534 43.3021 80.2751 43.4376C80.296 43.5679 80.3285 43.6961 80.372 43.8207C80.4495 44.0504 80.5723 44.2623 80.7334 44.4437C80.8812 44.6075 81.0628 44.741 81.2718 44.8201L81.284 44.8154Z" fill="url(#paint1_linear_303_549)"></path><path d="M102.47 12.0673L103.751 27.7652C103.781 28.1256 103.722 29.2202 103.666 29.6606C103.61 30.1011 103.507 30.5641 103.376 31.0233C103.244 31.4826 103.081 31.9362 102.905 32.3484C102.73 32.7607 102.51 33.139 102.289 33.4477L100.764 35.5765L97.9219 39.5292C97.4331 40.2162 96.7581 40.778 96.0558 41.2373C95.6863 41.4792 95.3046 41.6871 94.9267 41.849C94.5478 42.0109 94.2019 42.1313 93.8819 42.1709L80.7466 44.4419C80.8934 44.6084 81.0781 44.7375 81.2849 44.8183C81.3866 44.8559 81.4939 44.8814 81.6049 44.8936C81.7197 44.9048 81.8354 44.9013 81.9494 44.8832L85.6461 44.3025L88.0233 43.9487L92.792 43.2569L94.8064 42.9558C95.1382 42.904 95.5068 42.7864 95.8903 42.6208C96.273 42.4551 96.6716 42.2348 97.0542 41.9855C97.7847 41.5083 98.485 40.9221 98.9946 40.2106L100.469 38.1626L101.097 37.2949L101.95 36.111L102.58 35.2151L102.732 34.9986L102.888 34.7859L103.547 33.8975C103.777 33.5775 103.994 33.1861 104.186 32.7541C104.385 32.3069 104.553 31.8462 104.686 31.3753C104.82 30.911 104.92 30.4376 104.986 29.9589C105.047 29.5025 105.067 29.0714 105.035 28.6978L103.706 12.3759C103.643 11.5826 103.423 10.5483 103.125 9.43404L102.084 6.04599L100.402 1.4185C100.305 1.15499 100.205 0.891474 100.071 0.64678C100.016 0.54568 99.9516 0.45044 99.8774 0.362562C99.8087 0.281626 99.7335 0.21857 99.6517 0.174338C99.5652 0.125556 99.4731 0.0894248 99.3763 0.0670501C99.271 0.0427162 99.1638 0.0307137 99.0557 0.0312684C100.008 3.1017 100.963 6.17133 101.921 9.24019C102.208 10.3131 102.419 11.3059 102.481 12.0692L102.47 12.0673Z" fill="url(#paint2_linear_303_549)"></path><path d="M103.931 15.258L103.714 12.397C103.714 12.3932 103.697 12.3875 103.697 12.3828C91.1956 14.9238 83.2037 21.2831 80.3766 24.4518L80.3718 25.184C83.2893 22.2618 92.8925 16.313 103.933 15.258H103.931ZM104.728 24.799L104.632 23.7479C91.7377 25.6695 82.9853 31.6043 80.3125 34.1698L80.3069 35.0685C82.8479 32.8447 92.6374 27.038 104.81 26.0573C104.776 25.646 104.763 25.231 104.728 24.799Z" fill="#2978C8"></path><path d="M103.959 15.578L103.743 12.9297C91.0375 15.4726 83.1509 21.9042 80.3699 25.0579L80.3652 25.7619C83.1161 22.8632 90.5312 17.4386 103.959 15.5789" fill="url(#paint3_linear_303_549)"></path><path d="M104.706 24.7833L104.671 24.3438C91.0308 26.3784 82.8581 32.2021 80.3086 34.7337L80.303 35.609C82.6699 33.5168 91.6096 28.4188 104.895 27.1012L104.706 24.7814" fill="url(#paint4_linear_303_549)"></path><defs><linearGradient id="paint0_linear_303_549" x1="100.907" y1="0.863311" x2="87.2405" y2="44.1617" gradientUnits="userSpaceOnUse"><stop stop-color="#058ED4"></stop><stop offset="1" stop-color="#002D56"></stop></linearGradient><linearGradient id="paint1_linear_303_549" x1="73.3843" y1="29.2706" x2="104.417" y2="25.1475" gradientUnits="userSpaceOnUse"><stop stop-color="#016FC5"></stop><stop offset="0.552024" stop-color="#2A9CE3"></stop><stop offset="1" stop-color="#47BBF7"></stop></linearGradient><linearGradient id="paint2_linear_303_549" x1="99.6922" y1="1.04666" x2="67.866" y2="25.2928" gradientUnits="userSpaceOnUse"><stop stop-color="#72C6EC"></stop><stop offset="0.553173" stop-color="#98D6F1"></stop><stop offset="1" stop-color="#34AAE2"></stop></linearGradient><linearGradient id="paint3_linear_303_549" x1="92.1622" y1="12.9297" x2="92.1622" y2="25.7619" gradientUnits="userSpaceOnUse"><stop stop-color="#FDFEFE"></stop><stop offset="1" stop-color="#DDF3FD"></stop></linearGradient><linearGradient id="paint4_linear_303_549" x1="92.5986" y1="24.3438" x2="92.5986" y2="35.609" gradientUnits="userSpaceOnUse"><stop stop-color="#FDFEFE"></stop><stop offset="1" stop-color="#DDF3FD"></stop></linearGradient></defs></svg>