<svg xmlns="http://www.w3.org/2000/svg" width="145" height="33" viewBox="0 0 145 33" fill="none"><g clip-path="url(#clip0_303_558)"><path fill-rule="evenodd" clip-rule="evenodd" d="M127.79 23.1865L127.695 22.3467C127.675 22.2064 127.226 18.897 129.357 16.5691C129.976 15.8899 130.725 15.5009 131.409 15.5009C131.992 15.5009 132.472 15.7692 132.714 16.281C133.892 18.7578 127.79 23.1865 127.79 23.1865ZM118.516 17.9711L118.434 16.5737L118.422 16.3982C118.42 16.3544 118.124 11.9339 118.388 8.78745C118.676 5.36557 119.625 3.15494 120.802 3.15494C121.044 3.15494 121.274 3.28554 121.455 3.52392C122.043 4.29734 122.215 6.36033 121.847 8.21902C121.255 11.1872 120.316 13.5408 119.63 15.2643C119.435 15.7517 119.263 16.1828 119.128 16.5576L118.516 17.9711ZM112.081 27.2908C110.578 27.2908 109.868 25.7688 109.868 24.3381C109.868 16.956 113.724 15.5009 115.411 16.0679C115.411 16.0679 115.466 17.4701 115.602 19.2747C115.72 20.8418 115.827 22.6968 115.852 22.8569C115.852 22.8569 114.451 27.2908 112.081 27.2908ZM99.825 16.3549C99.825 16.3549 99.397 27.2908 95.493 27.2908C93.6222 27.2908 93.4771 25.0868 93.4771 24.4106C93.4771 16.6112 99.0739 15.2226 99.825 16.3549ZM63.7056 27.5522C61.4659 27.5522 60.6685 25.2022 60.6685 23.0029C60.6685 18.9962 62.8765 15.888 64.7749 15.888C66.6242 15.888 67.2959 18.5747 67.2959 20.38C67.2959 24.4019 65.7185 27.5522 63.7056 27.5522ZM28.0658 18.2509C26.7818 20.3625 23.8575 22.4515 23.0078 22.7843C23.0078 22.7843 22.3977 18.6484 25.5905 16.2333C27.9299 14.4637 28.9938 16.7248 28.0658 18.2509ZM125.719 27.9495C126.632 29.4696 128.256 30.2101 130.552 30.2101C133.076 30.2101 135.689 28.2022 137.183 26.332C138.072 25.2227 138.168 24.5854 137.794 24.2372C137.454 23.9207 136.703 24.3348 136.016 24.9933C135.088 25.881 133.124 27.1572 131.405 27.1572C129.321 27.1572 128.37 25.7234 128.37 25.7234C132.615 22.9833 135.742 19.8728 135.742 17.2032C135.742 14.2113 133.645 12.8734 131.567 12.8734C127.85 12.8734 123.838 16.468 123.838 22.276C123.838 24.1955 124.448 25.8264 124.448 25.8264C124.448 25.8264 123.711 27.04 121.367 26.835C118.876 26.6173 119.033 21.8511 119.033 21.8511C119.033 21.8511 119.796 20.3477 120.084 19.7878C121.77 16.5099 124.078 12.0216 124.451 6.63971C124.658 3.62411 123.851 2.00472 123.138 1.17671C122.503 0.439453 121.654 0 120.868 0C117.986 0 115.987 3.12915 115.503 6.22006C115.029 9.25109 115.22 13.7599 115.22 13.7599C115.22 13.7599 112.631 13.0823 110.033 14.9481C107.656 16.655 106.6 20.0711 106.269 21.7953C106.118 22.5669 106.067 23.3767 106.116 24.2008C106.138 24.5852 106.25 25.3255 106.25 25.3255C106.25 25.3255 105.395 27.2318 103.876 27.2318C101.429 27.2318 103.044 15.2249 103.139 14.5496C103.214 14.0058 103.528 12.8453 101.802 12.764C100.759 12.7149 100.323 13.1272 100.244 13.6652L100.174 14.2009C100.174 14.2009 96.6353 11.6524 92.6293 16.2423C90.4952 18.6834 89.7205 22.2161 89.6854 25.0504L89.6835 25.2289C89.6835 25.2289 88.8059 27.9152 86.7634 27.513C85.4035 27.2454 85.2324 24.6842 85.2324 23.6943C85.2324 21.7953 85.6455 19.6791 85.9781 17.9787C86.1881 16.901 86.3701 15.9719 86.3701 15.4635C86.3701 13.6477 85.8893 12.8734 84.7637 12.8734C83.2318 12.8734 81.8568 14.1583 80.3335 16.1421C78.3895 18.6738 76.9432 22.6293 76.9432 22.6293C76.9432 22.6293 77.0069 21.9222 77.1072 21.2405C77.1723 20.7996 77.3491 18.7578 77.6754 16.9037C77.8564 15.8774 77.9223 15.0372 77.9339 14.9467C77.9909 14.4441 77.8837 14.0102 77.6244 13.6917C77.3692 13.3787 76.9789 13.1986 76.5542 13.1986C75.8735 13.1986 74.9977 13.6802 74.5818 15.0317C74.3918 15.642 74.2828 16.0921 74.1474 16.8169L74.0199 17.4895L73.5467 17.0325C71.6719 15.2176 69.0749 13.0546 65.3509 13.0546C60.1064 13.0546 57.2759 18.1942 57.2759 23.0315C57.2759 23.6275 57.311 24.196 57.3788 24.7225L57.4053 24.9302C57.4053 24.9302 56.3105 27.7365 54.3889 27.2251C53.5476 27.0013 53.0294 26.0514 53.0294 23.7897C53.0294 21.9079 53.3865 19.3509 53.6001 17.8165C53.6723 17.2958 53.7303 16.8846 53.7462 16.693L53.7937 16.1255C53.9405 14.4174 53.9818 13.6459 53.4473 13.2739C53.0541 13.0039 52.6399 12.8734 52.1826 12.8734C51.743 12.8734 51.3965 13.0889 51.0879 13.3216C50.6132 13.6811 49.0601 15.8698 46.1267 20.9381C46.0793 21.0201 46.052 21.0638 46.0492 21.0677L45.7293 21.72L44.9597 23.514L45.3792 20.9074L45.4057 20.7368C45.4742 20.2982 45.5955 19.5255 45.6457 19.2795L45.7687 18.7138C45.9667 17.8059 46.379 15.9175 46.4337 15.5838C46.6102 14.4775 46.5408 13.7384 46.2208 13.3255C45.9841 13.0212 45.5886 12.8734 45.0107 12.8734C43.9467 12.8734 43.0902 13.7297 41.6138 16.2676C41.3835 16.6644 40.5209 18.1788 39.8394 19.3776C38.9565 20.9314 38.1555 22.0807 38.1555 22.0807L38.3417 20.0034C38.4843 19.0706 39.018 14.7864 39.0252 14.5853C39.0233 13.682 38.6012 13.2614 37.6963 13.2614C37.3281 13.2614 36.43 13.3474 36.0538 14.1427C35.709 14.8696 34.7522 18.162 34.287 23.1971C34.287 23.1971 30.5841 26.9914 26.6252 26.9914C25.1664 26.9914 24.0118 26.387 23.5933 25.2064C23.5933 25.2064 25.7113 24.035 26.717 23.2938C29.2923 21.3959 31.1658 19.4619 31.1658 16.9784C31.1658 13.9397 28.5354 12.5714 26.3623 12.8734C22.6305 13.3918 19.4763 17.553 19.4763 22.3866C19.4763 26.9333 21.8566 30.2101 25.9992 30.2101C30.7972 30.2101 34.1092 25.9989 34.1092 25.9989L34.0094 27.9212C33.9477 28.9231 34.3356 30.2101 35.9157 30.2101C36.3352 30.2101 37.101 30.068 37.5082 29.1163C39.966 23.4016 42.5399 18.8693 42.5654 18.8246L42.6533 18.6701L43.0999 17.7582L43.7648 16.5776L43.2319 19.1116C43.1352 19.6897 42.2876 24.8312 42.1662 27.0982C42.1036 28.2427 42.1028 29.369 42.5231 29.8515C42.736 30.0968 43.0781 30.2101 43.5985 30.2101C44.762 30.2101 45.4838 29.7819 45.7441 28.9369C47.6382 22.8474 49.6792 18.7387 49.7654 18.5662L49.8453 18.4068L50.9164 16.1838C50.9164 16.1838 50.0715 21.2552 50.0715 24.7137C50.0715 26.3667 50.3772 29.3761 52.5908 29.9478C55.9983 30.8281 58.0918 27.0761 58.0918 27.0761L58.3135 27.7335C59.2861 29.4701 60.9023 30.3886 62.9881 30.3886C67.31 30.3886 70.1029 26.8168 70.1029 21.2881C70.1029 17.858 68.6168 15.8929 68.6168 15.8929C68.6168 15.8929 70.2662 16.5087 71.4775 17.4314C72.7898 18.4308 73.7218 19.4893 73.7218 19.4893L73.6892 19.7153C73.6504 19.9785 73.6154 20.2436 73.5801 20.5117C73.4438 21.5724 73.3235 22.6844 73.2215 23.8182C73.1275 24.8749 73.0789 25.8305 73.0789 26.6576C73.0789 27.1602 73.1045 27.6236 73.1589 28.0757C73.2063 28.4972 73.3039 28.8816 73.4474 29.2154C73.4932 29.3174 73.9232 30.2101 75.0099 30.2101C75.7354 30.2101 76.2011 29.9312 76.5445 29.082C79.9031 20.7755 82.5936 18.1134 82.83 17.8488C83.4534 17.1511 83.172 18.4497 83.172 18.4497L83.1474 18.6206C83.143 18.6482 82.7279 21.4616 82.6347 22.3172C82.5407 23.1611 82.4932 23.967 82.4932 24.7137C82.4932 27.0275 82.9799 29.6645 85.5272 30.0811C89.0091 30.6509 90.2156 27.759 90.2156 27.759C90.2156 27.759 91.4754 30.2101 94.4499 30.2101C98.8112 30.2101 100.162 26.671 100.162 26.671C100.622 28.8003 101.439 29.9478 103.406 29.9478C105.535 29.9478 107.013 27.4094 107.013 27.4094C107.013 27.4094 108.244 30.2101 111.254 30.2101C114.737 30.2101 116.517 27.3871 116.591 27.2689L116.994 26.5984C116.994 26.5984 118.129 29.644 121.053 29.819C123.819 29.9844 125.719 27.9495 125.719 27.9495ZM6.21398 29.0375C3.13868 28.9169 2.96903 26.3863 5.79343 25.7329C8.37429 25.1359 10.5268 26.0915 10.5268 26.0915C10.5268 26.0915 9.87551 29.1815 6.21398 29.0375ZM19.8705 3.45666C21.6475 3.61121 21.5139 6.22743 21.0304 7.86778C19.6134 12.6764 16.2239 12.8199 16.2239 12.8199C16.2239 12.8199 17.2962 3.23279 19.8705 3.45666ZM15.9237 15.1178C15.9237 15.1178 21.621 15.1579 23.5615 8.04536C24.6907 3.90602 23.0915 0.378188 19.7573 0.303564C16.3906 0.228249 13.7825 3.38319 12.5603 12.8125C12.5603 12.8125 9.3061 12.3581 7.86849 9.64195C7.18842 8.35675 6.16234 8.9549 6.48231 10.1763C7.56405 14.3064 12.3552 14.9714 12.3552 14.9714C12.3552 14.9714 12.1568 16.7996 11.8605 19.0377C11.5731 21.2089 11.0797 23.9408 11.0797 23.9408C11.0797 23.9408 8.05682 22.9292 4.84062 23.6402C-0.101876 24.7331 -0.64568 31.2189 5.40207 31.8594C12.4942 32.6103 13.8333 27.4202 13.8333 27.4202C13.8333 27.4202 15.2266 28.1365 17.2039 30.0077C19.395 32.0812 20.3963 33.3674 20.8506 32.9065C21.3487 32.4012 20.2516 30.6367 18.2207 28.3867C15.9224 25.8405 14.3318 25.1833 14.3318 25.1833C14.3318 25.1833 14.712 23.499 15.1265 20.766C15.5652 17.8732 15.9237 15.1178 15.9237 15.1178Z" fill="#211F1F"></path></g><defs><clipPath id="clip0_303_558"><rect width="145" height="33" fill="white"></rect></clipPath></defs></svg>