<svg xmlns="http://www.w3.org/2000/svg" width="172" height="46" viewBox="0 0 172 46" fill="none"><path d="M63.608 33.224C61.496 33.224 59.5547 32.7333 57.784 31.752C56.0347 30.7707 54.6373 29.4053 53.592 27.656C52.568 25.8853 52.056 23.9013 52.056 21.704C52.056 19.5067 52.568 17.5333 53.592 15.784C54.6373 14.0347 56.0347 12.6693 57.784 11.688C59.5547 10.7067 61.496 10.216 63.608 10.216C65.72 10.216 67.6507 10.7067 69.4 11.688C71.1707 12.6693 72.5573 14.0347 73.56 15.784C74.584 17.5333 75.096 19.5067 75.096 21.704C75.096 23.9013 74.584 25.8853 73.56 27.656C72.536 29.4053 71.1493 30.7707 69.4 31.752C67.6507 32.7333 65.72 33.224 63.608 33.224ZM63.608 28.232C65.4 28.232 66.8293 27.6347 67.896 26.44C68.984 25.2453 69.528 23.6667 69.528 21.704C69.528 19.72 68.984 18.1413 67.896 16.968C66.8293 15.7733 65.4 15.176 63.608 15.176C61.7947 15.176 60.344 15.7627 59.256 16.936C58.1893 18.1093 57.656 19.6987 57.656 21.704C57.656 23.688 58.1893 25.2773 59.256 26.472C60.344 27.6453 61.7947 28.232 63.608 28.232ZM89.5963 33L84.9243 24.52H83.6123V33H78.1403V10.536H87.3243C89.0949 10.536 90.5989 10.8453 91.8363 11.464C93.0949 12.0827 94.0336 12.936 94.6523 14.024C95.2709 15.0907 95.5803 16.2853 95.5803 17.608C95.5803 19.1013 95.1536 20.4347 94.3003 21.608C93.4683 22.7813 92.2309 23.6133 90.5883 24.104L95.7723 33H89.5963ZM83.6123 20.648H87.0043C88.0069 20.648 88.7536 20.4027 89.2443 19.912C89.7563 19.4213 90.0123 18.728 90.0123 17.832C90.0123 16.9787 89.7563 16.3067 89.2443 15.816C88.7536 15.3253 88.0069 15.08 87.0043 15.08H83.6123V20.648ZM104.487 10.536V33H99.0153V10.536H104.487ZM122.213 33L117.637 26.12L113.605 33H107.397L114.597 21.576L107.237 10.536H113.605L118.117 17.32L122.085 10.536H128.293L121.157 21.864L128.581 33H122.213ZM150.592 10.536L142.816 25.576V33H137.344V25.576L129.568 10.536H135.776L140.128 19.944L144.448 10.536H150.592Z" fill="white"></path><path d="M155.357 33.256C154.397 33.256 153.607 32.9787 152.989 32.424C152.391 31.848 152.093 31.144 152.093 30.312C152.093 29.4587 152.391 28.744 152.989 28.168C153.607 27.592 154.397 27.304 155.357 27.304C156.295 27.304 157.063 27.592 157.661 28.168C158.279 28.744 158.589 29.4587 158.589 30.312C158.589 31.144 158.279 31.848 157.661 32.424C157.063 32.9787 156.295 33.256 155.357 33.256Z" fill="#0045FA"></path><g clip-path="url(#clip0_348_731)"><path d="M9.40918 22.1381V17.8675L22.3287 6.74097V10.9924L9.40918 22.1381Z" fill="white"></path><path d="M22.3291 10.9924V6.74097L36.0462 18.7632L35.2486 22.1381L22.3291 10.9924Z" fill="white"></path><path d="M22.3286 33.3414L3 16.6803L22.3286 0L41.6571 16.6803L22.3286 33.3414ZM7.98802 16.3421L22.3286 29.0526L37.9161 16.6803L22.3286 4.23684L7.98802 16.3421Z" fill="white"></path><path d="M22.3281 39.6612V35.1607L41.6567 18.4805V22.9809L22.3281 39.6612Z" fill="white"></path><path d="M3 22.9809V18.4805L22.3286 35.1607V39.6612L3 22.9809Z" fill="white"></path><path d="M22.3281 46V41.4996L41.6567 24.8193V29.3198L22.3281 46Z" fill="white"></path><path d="M3 29.3198V24.8193L22.3286 41.4996V46L3 29.3198Z" fill="white"></path></g><defs><clipPath id="clip0_348_731"><rect width="41" height="46" fill="white"></rect></clipPath></defs></svg>