<svg xmlns="http://www.w3.org/2000/svg" width="172" height="46" viewBox="0 0 172 46" fill="none"><path d="M56.984 21.8C56.984 20.3707 57.2827 19.1013 57.88 17.992C58.4773 16.8827 59.2987 16.008 60.344 15.368C61.3893 14.728 62.6053 14.408 63.992 14.408C65.4 14.408 66.6267 14.728 67.672 15.368C68.7173 16.008 69.528 16.8827 70.104 17.992C70.68 19.1013 70.968 20.3707 70.968 21.8C70.968 23.2293 70.6693 24.4987 70.072 25.608C69.496 26.7173 68.6853 27.592 67.64 28.232C66.5947 28.872 65.3787 29.192 63.992 29.192C62.6053 29.192 61.3893 28.872 60.344 28.232C59.2987 27.592 58.4773 26.7173 57.88 25.608C57.2827 24.4987 56.984 23.2293 56.984 21.8ZM52.152 21.8C52.152 23.4853 52.44 25.0533 53.016 26.504C53.592 27.9333 54.4133 29.1813 55.48 30.248C56.5467 31.3147 57.7947 32.1467 59.224 32.744C60.6747 33.32 62.264 33.608 63.992 33.608C65.72 33.608 67.2987 33.32 68.728 32.744C70.1787 32.1467 71.4267 31.3147 72.472 30.248C73.5387 29.1813 74.36 27.9333 74.936 26.504C75.5333 25.0533 75.832 23.4853 75.832 21.8C75.832 20.0933 75.5333 18.536 74.936 17.128C74.36 15.6987 73.528 14.4613 72.44 13.416C71.3733 12.3707 70.1253 11.5707 68.696 11.016C67.2667 10.44 65.6987 10.152 63.992 10.152C62.3067 10.152 60.7387 10.44 59.288 11.016C57.8587 11.5707 56.6107 12.3707 55.544 13.416C54.4773 14.4613 53.6453 15.6987 53.048 17.128C52.4507 18.536 52.152 20.0933 52.152 21.8ZM84.4575 22.568L91.1775 33H96.5855L89.2895 22.568H84.4575ZM79.3695 10.6V33H83.9455V10.6H79.3695ZM82.1535 14.504H86.6015C87.4122 14.504 88.1055 14.6427 88.6815 14.92C89.2788 15.176 89.7375 15.56 90.0575 16.072C90.3775 16.5627 90.5375 17.16 90.5375 17.864C90.5375 18.568 90.3775 19.176 90.0575 19.688C89.7375 20.1787 89.2788 20.5627 88.6815 20.84C88.1055 21.096 87.4122 21.224 86.6015 21.224H82.1535V24.872H86.8895C88.6602 24.872 90.1642 24.5733 91.4015 23.976C92.6388 23.3787 93.5882 22.5467 94.2495 21.48C94.9108 20.392 95.2415 19.144 95.2415 17.736C95.2415 16.3067 94.9108 15.0587 94.2495 13.992C93.5882 12.9253 92.6388 12.0933 91.4015 11.496C90.1642 10.8987 88.6602 10.6 86.8895 10.6H82.1535V14.504ZM99.2133 10.6V33H103.853V10.6H99.2133ZM120.618 10.6L116.682 17.64L112.842 10.6H107.242L113.994 21.448L106.442 33H112.042L116.65 24.968L121.098 33H126.698L119.338 21.448L126.218 10.6H120.618ZM142.724 10.6L137.892 19.624L133.092 10.6H127.876L135.588 23.752V33H140.228V23.72L147.94 10.6H142.724Z" fill="white"></path><path d="M150.401 31.112C150.401 31.7947 150.646 32.392 151.137 32.904C151.649 33.416 152.278 33.672 153.025 33.672C153.793 33.672 154.422 33.416 154.913 32.904C155.403 32.392 155.649 31.7947 155.649 31.112C155.649 30.3867 155.403 29.7787 154.913 29.288C154.422 28.776 153.793 28.52 153.025 28.52C152.278 28.52 151.649 28.776 151.137 29.288C150.646 29.7787 150.401 30.3867 150.401 31.112Z" fill="#FF7425"></path><g clip-path="url(#clip0_1903_5)"><path d="M9.40918 22.1381V17.8675L22.3287 6.74097V10.9924L9.40918 22.1381Z" fill="white"></path><path d="M22.3291 10.9924V6.74097L36.0462 18.7632L35.2486 22.1381L22.3291 10.9924Z" fill="white"></path><path d="M22.3286 33.3414L3 16.6803L22.3286 0L41.6571 16.6803L22.3286 33.3414ZM7.98802 16.3421L22.3286 29.0526L37.9161 16.6803L22.3286 4.23684L7.98802 16.3421Z" fill="white"></path><path d="M22.3281 39.6612V35.1607L41.6567 18.4805V22.9809L22.3281 39.6612Z" fill="white"></path><path d="M3 22.9809V18.4805L22.3286 35.1607V39.6612L3 22.9809Z" fill="white"></path><path d="M22.3281 46V41.4996L41.6567 24.8193V29.3198L22.3281 46Z" fill="white"></path><path d="M3 29.3198V24.8193L22.3286 41.4996V46L3 29.3198Z" fill="white"></path></g><defs><clipPath id="clip0_1903_5"><rect width="41" height="46" fill="white"></rect></clipPath></defs></svg>