<svg width="16" height="13" viewBox="0 0 16 13" fill="none" xmlns="http://www.w3.org/2000/svg">
<path d="M14.928 1.488C13.712 2.59733 12.528 3.888 11.376 5.36C10.3733 6.62933 9.472 7.93067 8.672 9.264C7.94667 10.4587 7.41867 11.4827 7.088 12.336C7.07733 12.368 7.056 12.3947 7.024 12.416C6.992 12.448 6.95467 12.464 6.912 12.464C6.90133 12.4747 6.89067 12.48 6.88 12.48C6.80533 12.48 6.752 12.4587 6.72 12.416L1.008 6.608C0.997333 6.59733 1.136 6.45867 1.424 6.192C1.712 5.91467 1.99467 5.664 2.272 5.44C2.58133 5.184 2.74667 5.06667 2.768 5.088L5.904 7.552C6.82133 6.47467 7.85067 5.408 8.992 4.352C10.7093 2.77333 12.48 1.42933 14.304 0.32C14.336 0.32 14.4587 0.469333 14.672 0.768L14.992 1.232C15.0027 1.27467 15.0027 1.32267 14.992 1.376C14.9813 1.41867 14.96 1.456 14.928 1.488Z" fill="#262420"/>
</svg>
